<?xml version="1.0" encoding="UTF-8"?>
<svg width="80px" height="88px" viewBox="0 0 80 88" version="1.1" xmlns="http://www.w3.org/2000/svg" xmlns:xlink="http://www.w3.org/1999/xlink">
    <title>Graphic 03</title>
    <g id="Graphic-03" stroke="none" stroke-width="1" fill="none" fill-rule="evenodd">
        <g id="Asset-2">
            <polygon id="Path" fill="#283B49" fill-rule="nonzero" points="51.71 0 40.16 47.88 28.3 0 32.24 0 40.11 31.75 47.77 0"></polygon>
            <rect id="Rectangle" fill="#637789" fill-rule="nonzero" x="18.38" y="27.48" width="43.24" height="60.52" rx="5"></rect>
            <rect id="Rectangle" fill="#FFFFFF" fill-rule="nonzero" x="22.54" y="48.72" width="34.92" height="35.99" rx="4"></rect>
            <circle id="Oval" fill="#FFFFFF" fill-rule="nonzero" cx="40" cy="45.12" r="10.49"></circle>
            <g id="Group" transform="translate(28.889944, 36.060655)" fill-rule="nonzero">
                <path d="M9.11005623,9.33934475 C9.11005623,9.33934475 3.31005623,12.3393448 1.50005623,16.1693448 C-0.379943772,20.1693448 0.0400562284,25.4293448 0.0400562284,25.4293448 L23.7100562,25.4293448 C23.7100562,25.4293448 25.3600562,13.7893448 13.8300562,9.23934475 C13.8300562,9.23934475 11.3200562,13.4493448 9.11005623,9.33934475 Z" id="Path" fill="#2E2E3C"></path>
                <path d="M9.11005623,8.00934475 C9.04702021,9.72571676 9.15421053,11.4441116 9.43005623,13.1393448 C9.84005623,14.6993448 14.4300562,12.9293448 14.2800562,11.4793448 C14.1300562,10.0293448 13.1100562,6.57934475 13.1100562,6.57934475 L9.11005623,8.00934475 Z" id="Path" fill="#F98E90"></path>
                <path d="M8.01005623,2.48934475 C8.01005623,2.48934475 6.93005623,7.86934475 8.53005623,8.93934475 C10.1300562,10.0093448 12.9700562,8.83934475 13.6600562,6.43934475 C14.3500562,4.03934475 12.9700562,3.90934475 12.6600562,4.67934475 C12.3500562,5.44934475 10.8500562,2.93934475 10.8500562,2.93934475 L7.91005623,2.51934475" id="Path" fill="#FFBAB9"></path>
                <path d="M14.5600562,2.73934475 C14.4814906,1.8385735 14.0008434,1.02128471 13.251811,0.514814638 C12.5027787,0.00834456818 11.5652681,-0.133276448 10.7000562,0.129344752 C8.93005623,0.609344752 6.92005623,0.909344752 6.92005623,0.909344752 C6.88528589,1.72335696 7.26077647,2.50062245 7.92005623,2.97934475 C7.92005623,2.71934475 8.00005623,2.54934475 8.01005623,2.49934475 L8.01005623,2.49934475 L10.8500562,2.90934475 C10.8500562,2.90934475 12.4200562,5.43934475 12.6900562,4.67934475 C12.8800562,4.15934475 14.0200562,4.18934475 13.8500562,5.61934475 C14.4703089,4.79668971 14.7268601,3.75603111 14.5600562,2.73934475 L14.5600562,2.73934475 Z" id="Path" fill="#2E2E3C"></path>
                <path d="M13.8300562,9.23934475 L10.7000562,12.6593448 L9.04005623,9.34934475 C9.04005623,9.34934475 8.92005623,9.82934475 8.78005623,10.6993448 C8.57956906,11.9434576 8.46264068,13.1996026 8.43005623,14.4593448 C8.32005623,17.6193448 10.0200562,23.8293448 10.0200562,23.8293448 L15.1100562,9.75934475 L13.8300562,9.23934475 Z" id="Path" fill="#FEFEFE"></path>
                <path d="M8.77005623,6.57934475 C8.46005623,6.19934475 9.40005623,4.04934475 9.26005623,4.04934475 C8.77386785,3.86932875 8.30523422,3.64505409 7.86005623,3.37934475 C7.63005623,4.94934475 7.34005623,8.13934475 8.53005623,8.93934475 C8.80205029,9.12006837 9.10845803,9.24263147 9.43005623,9.29934475 C9.58576258,8.43631155 9.58576258,7.55237795 9.43005623,6.68934475 C9.21432158,6.82697149 8.92949385,6.7795002 8.77005623,6.57934475 Z" id="Path" fill="#FFA9A8"></path>
                <polygon id="Path" fill="#006EFF" points="9.57005623 12.5293448 10.1200562 15.3393448 11.1500562 15.3393448 11.8800562 12.5293448"></polygon>
                <path d="M9.11005623,9.34934475 C9.11005623,9.34934475 8.00005623,9.67934475 8.11005623,10.3993448 C8.22005623,11.1193448 8.48005623,14.3293448 8.48005623,14.3293448 L10.3400562,12.9393448 C10.5554001,12.7742901 10.8547123,12.7742901 11.0700562,12.9393448 L13.3000562,14.9393448 C13.3000562,14.9393448 15.1100562,10.0993448 15.1100562,9.75934475 C15.1100562,9.41934475 13.7900562,9.23934475 13.7900562,9.23934475 L11.1100562,11.9393448 C11.0301898,12.0236675 10.9145482,12.0642795 10.7994955,12.0484102 C10.6844427,12.0325408 10.5841133,11.9621397 10.5300562,11.8593448 L9.11005623,9.34934475 Z" id="Path" fill="#E8E8E8"></path>
                <path d="M10.1100562,15.3393448 C10.1100562,15.3393448 9.61005623,16.5293448 9.28005623,17.5993448 C9.1159208,19.2820183 9.1159208,20.9766712 9.28005623,22.6593448 L10.1100562,25.3493448 L10.9100562,24.6393448 L11.7600562,18.5693448 C11.7752206,18.4732728 11.7752206,18.3754167 11.7600562,18.2793448 L11.1100562,15.3393448 L10.1100562,15.3393448 Z" id="Path" fill="#0000AA"></path>
            </g>
            <rect id="Rectangle" fill="#CED4DD" fill-rule="nonzero" x="26.72" y="59.28" width="26.57" height="2.99"></rect>
            <rect id="Rectangle" fill="#CED4DD" fill-rule="nonzero" x="26.72" y="67.26" width="26.57" height="2.99"></rect>
            <rect id="Rectangle" fill="#CED4DD" fill-rule="nonzero" x="26.72" y="75.75" width="26.57" height="2.99"></rect>
            <rect id="Rectangle" x="0" y="0" width="80" height="88"></rect>
        </g>
    </g>
</svg>