<?xml version="1.0" encoding="UTF-8"?>
<svg width="80px" height="106px" viewBox="0 0 80 106" version="1.1" xmlns="http://www.w3.org/2000/svg" xmlns:xlink="http://www.w3.org/1999/xlink">
    <title>Graphic_01</title>
    <defs>
        <polygon id="path-1" points="0 0 39 0 39 74 0 74"></polygon>
        <polygon id="path-3" points="-20 106 59 106 59 0 -20 0"></polygon>
    </defs>
    <g id="Graphic_01" stroke="none" stroke-width="1" fill="none" fill-rule="evenodd">
        <g id="Group-4">
            <rect id="Rectangle" x="0" y="0" width="80" height="106"></rect>
            <g id="Group-3" transform="translate(21.000000, 0.000000)">
                <mask id="mask-2" fill="white">
                    <use xlink:href="#path-1"></use>
                </mask>
                <g id="Clip-2"></g>
                <path d="M19.4952927,-0.000156280028 C8.72655401,-0.000156280028 0,8.70151571 0,19.4262327 L0,74 L39,74 L39,19.4262327 C39,8.70151571 30.273446,-0.000156280028 19.4952927,-0.000156280028 M19.4952927,7.81384514 C25.9238986,7.81384514 31.1544961,13.0234399 31.1544961,19.4262327 L31.1544961,66.1859986 L7.84550392,66.1859986 L7.84550392,19.4262327 C7.84550392,13.0234399 13.0713941,7.81384514 19.4952927,7.81384514" id="Fill-1" fill="#475467" mask="url(#mask-2)"></path>
                <mask id="mask-4" fill="white">
                    <use xlink:href="#path-3"></use>
                </mask>
                <g id="Clip-5"></g>
                <path d="M-9,79 L48,79 C50.209139,79 52,77.209139 52,75 L52,36 C52,33.790861 50.209139,32 48,32 L-9,32 C-11.209139,32 -13,33.790861 -13,36 L-13,75 C-13,77.209139 -11.209139,79 -9,79 Z" id="Fill-4" fill="#E4E7EC" mask="url(#mask-4)"></path>
                <path d="M-16,106 L55,106 C57.209139,106 59,104.209139 59,102 L59,92 C59,89.790861 57.209139,88 55,88 L-16,88 C-18.209139,88 -20,89.790861 -20,92 L-20,102 C-20,104.209139 -18.209139,106 -16,106 Z" id="Fill-6" fill="#F3F4F6" mask="url(#mask-4)"></path>
                <path d="M24,51.5 C24,53.9863274 21.98488,56 19.5004074,56 C17.0143051,56 15,53.9863274 15,51.5 C15,49.0144875 17.0143051,47 19.5004074,47 C21.98488,47 24,49.0144875 24,51.5" id="Fill-7" fill="#475467" mask="url(#mask-4)"></path>
                <polygon id="Fill-8" fill="#475467" mask="url(#mask-4)" points="17 64 22 64 22 53 17 53"></polygon>
                <path d="M6,97.5 C6,99.4328248 4.43282475,101 2.5,101 C0.567175249,101 -1,99.4328248 -1,97.5 C-1,95.5671752 0.567175249,94 2.5,94 C4.43282475,94 6,95.5671752 6,97.5" id="Fill-9" fill="#475467" mask="url(#mask-4)"></path>
                <path d="M23,97.5 C23,99.4328248 21.4328248,101 19.5,101 C17.5671752,101 16,99.4328248 16,97.5 C16,95.5671752 17.5671752,94 19.5,94 C21.4328248,94 23,95.5671752 23,97.5" id="Fill-10" fill="#475467" mask="url(#mask-4)"></path>
                <path d="M40,97.5 C40,99.4328248 38.4328248,101 36.5,101 C34.5671752,101 33,99.4328248 33,97.5 C33,95.5671752 34.5671752,94 36.5,94 C38.4328248,94 40,95.5671752 40,97.5" id="Fill-11" fill="#475467" mask="url(#mask-4)"></path>
            </g>
        </g>
    </g>
</svg>