<?xml version="1.0" encoding="UTF-8"?>
<svg width="32px" height="32px" viewBox="0 0 32 32" version="1.1" xmlns="http://www.w3.org/2000/svg" xmlns:xlink="http://www.w3.org/1999/xlink">
    <title>Icon / 32 / Marriage</title>
    <g id="Icon-/-32-/-Marriage" stroke="none" stroke-width="1" fill="none" fill-rule="evenodd">
        <g id="Group-23" transform="translate(8.000000, 6.000000)" stroke="#2E7E92">
            <path d="M6.09518444,4.74389673 L7.79236116,6.50384706 C6.35613224,6.55715411 5.06065724,7.16116817 4.1109127,8.1109127 C3.11560847,9.10621694 2.5,10.4812169 2.5,12 C2.5,13.5187831 3.11560847,14.8937831 4.1109127,15.8890873 C5.10621694,16.8843915 6.48121694,17.5 8,17.5 C9.51878306,17.5 10.8937831,16.8843915 11.8890873,15.8890873 C12.8843915,14.8937831 13.5,13.5187831 13.5,12 C13.5,10.4812169 12.8843915,9.10621694 11.8890873,8.1109127 C10.8937831,7.11560847 9.51878306,6.5 8,6.5 L8.207,6.505 L9.90567607,4.74412202 C11.4869865,5.15823029 12.8644557,6.07582562 13.8569917,7.31491248 C14.8851825,8.59851102 15.5,10.2274719 15.5,12 C15.5,14.0710678 14.6605339,15.9460678 13.3033009,17.3033009 C11.9460678,18.6605339 10.0710678,19.5 8,19.5 C5.92893219,19.5 4.05393219,18.6605339 2.69669914,17.3033009 C1.33946609,15.9460678 0.5,14.0710678 0.5,12 C0.5,10.227298 1.11493816,8.59819142 2.14331091,7.3145347 C3.13600431,6.07541441 4.51367398,5.15785538 6.09518444,4.74389673 Z" id="Combined-Shape"></path>
            <path d="M4,1.8507749 L5.69729941,0 L10.3027006,0 L12,1.8507749 L8,6 L4,1.8507749 Z" id="Combined-Shape"></path>
        </g>
    </g>
</svg>