<?xml version="1.0" encoding="UTF-8"?>
<svg width="133.920525px" height="165.920227px" viewBox="0 0 133.920525 165.920227" version="1.1" xmlns="http://www.w3.org/2000/svg" xmlns:xlink="http://www.w3.org/1999/xlink">
    <title>Graphic 07</title>
    <g id="Graphic-07" stroke="none" stroke-width="1" fill="none" fill-rule="evenodd">
        <g id="Asset-12" transform="translate(25.000000, 9.000000)" fill-rule="nonzero">
            <path d="M0,11.63 C0.00551377409,5.20921363 5.20921363,0.00551377409 11.63,0 L72,0 C78.4051599,0.027511514 83.5845563,5.22478333 83.59,11.63 L83.59,137.71 C83.59,144.117483 78.4074451,149.317962 72,149.34 L11.63,149.34 C5.20692836,149.34 0,144.133072 0,137.71 L0,11.63 Z" id="Path" fill="#283B49"></path>
            <rect id="Rectangle" fill="#FFFFFF" x="3.48" y="3.48" width="76.63" height="142.39" rx="8.15"></rect>
            <path d="M32.65,-8.8817842e-16 C31.9400325,0.689984283 31.542683,1.64001079 31.55,2.63 C31.5176011,3.52393301 31.8419374,4.39407137 32.4515492,5.0487006 C33.061161,5.70332984 33.9060266,6.08873458 34.8,6.12 L48.8,6.12 C50.6419193,6.02822131 52.0679541,4.47295208 52,2.63 C52.0187107,1.64376421 51.631919,0.693051848 50.93,-8.8817842e-16 L32.65,-8.8817842e-16 Z" id="Path" fill="#283B49"></path>
            <path d="M37.83,2.85 C37.83,3.38793479 37.5059559,3.87290105 37.008969,4.07875978 C36.511982,4.28461851 35.9399253,4.17082935 35.559548,3.79045202 C35.1791706,3.41007468 35.0653815,2.83801797 35.2712402,2.34103103 C35.477099,1.8440441 35.9620652,1.52 36.5,1.52 C37.2345387,1.52 37.83,2.11546128 37.83,2.85 Z" id="Path" fill="#FFFFFF"></path>
            <rect id="Rectangle" fill="#E2E6EC" x="7.78" y="21.14" width="68.02" height="18.24" rx="8.62"></rect>
            <circle id="Oval" fill="#FFFFFF" cx="17.35" cy="30.44" r="7.35"></circle>
            <path d="M21,27.91 C20.9847022,28.6697836 20.8252081,29.4197449 20.53,30.12 C19.9900399,31.5069115 19.2078765,32.7868152 18.22,33.9 C17.7127378,34.4883996 17.0807639,34.9564019 16.37,35.27 C15.9472574,35.4605796 15.4798398,35.5298267 15.02,35.47 C14.9113032,35.4506963 14.8065531,35.4135269 14.71,35.36 C14.41,35.2 14.12,35.02 13.83,34.85 C13.7320775,34.8019339 13.6595334,34.7141038 13.6308317,34.6088641 C13.6021299,34.5036244 13.6200388,34.3911253 13.68,34.3 C14.08,33.61 14.49,32.92 14.9,32.23 C14.9495939,32.1307119 15.0401161,32.0580675 15.1477874,32.0311497 C15.2554588,32.0042319 15.3695168,32.0257312 15.46,32.09 L16.32,32.6 C16.4954022,32.7417537 16.7514456,32.719681 16.9,32.55 C17.0883105,32.3735698 17.2591064,32.1793313 17.41,31.97 C17.77,31.39 18.11,30.8 18.41,30.2 C18.5494887,29.9273979 18.67303,29.6469258 18.78,29.36 C18.785696,29.2834391 18.785696,29.2065609 18.78,29.13 C18.8405867,28.9370927 18.7395001,28.7305244 18.55,28.66 L17.7,28.16 C17.5959052,28.1127742 17.5185991,28.0211986 17.4895088,27.9106556 C17.4604185,27.8001125 17.4826348,27.6823469 17.55,27.59 L18.71,25.59 C18.7814983,25.4474847 18.930807,25.3610428 19.09,25.37 C19.1492786,25.3759718 19.2069275,25.3929274 19.26,25.42 L20.2,25.98 C20.3900874,26.1129669 20.5390642,26.2965894 20.63,26.51 C20.8701437,26.9377053 20.997474,27.4194958 21,27.91 L21,27.91 Z" id="Path" fill="#637789"></path>
            <rect id="Rectangle" fill="#E2E6EC" x="7.78" y="43.99" width="68.02" height="18.24" rx="8.62"></rect>
            <circle id="Oval" fill="#FFFFFF" cx="17.35" cy="53.29" r="7.35"></circle>
            <path d="M21,50.76 C21.0012134,51.5272927 20.855243,52.2876967 20.57,53 C20.0322651,54.3850025 19.249809,55.6619978 18.26,56.77 C17.7559186,57.364293 17.1233053,57.8361883 16.41,58.15 C15.987827,58.3424987 15.5189054,58.4084951 15.06,58.34 C14.9513032,58.3206963 14.8465531,58.2835269 14.75,58.23 C14.45,58.07 14.16,57.9 13.87,57.72 C13.7720775,57.6719339 13.6995334,57.5841038 13.6708317,57.4788641 C13.6421299,57.3736244 13.6600388,57.2611253 13.72,57.17 C14.12,56.48 14.53,55.79 14.94,55.1 C14.9914348,55.0023614 15.0827752,54.931906 15.1902743,54.9069508 C15.2977734,54.8819956 15.4108113,54.9050062 15.5,54.97 L16.36,55.47 C16.5222981,55.6249211 16.7777019,55.6249211 16.94,55.47 C17.1308633,55.2923815 17.3018665,55.0945544 17.45,54.88 C17.81,54.3 18.15,53.71 18.45,53.12 C18.5894989,52.8439812 18.7130355,52.5601808 18.82,52.27 C18.825696,52.1934391 18.825696,52.1165609 18.82,52.04 C18.8754011,51.8475157 18.7759842,51.6443595 18.59,51.57 C18.3,51.41 18.02,51.24 17.74,51.07 C17.6363766,51.0250963 17.5589349,50.9353257 17.5297148,50.8262371 C17.5004946,50.7171485 17.5226958,50.6006879 17.59,50.51 L18.75,48.51 C18.8147612,48.3613098 18.9688066,48.2721256 19.13,48.29 C19.1857525,48.2756048 19.2442475,48.2756048 19.3,48.29 L20.24,48.85 C20.4321043,48.9764379 20.5818865,49.1575698 20.67,49.37 C20.8930034,49.799008 21.0063733,50.2765357 21,50.76 Z" id="Path" fill="#637789"></path>
            <rect id="Rectangle" fill="#E2E6EC" x="7.78" y="66.83" width="68.02" height="18.24" rx="8.62"></rect>
            <circle id="Oval" fill="#FFFFFF" cx="17.35" cy="76.13" r="7.35"></circle>
            <path d="M21,73.6 C20.9847022,74.3597836 20.8252081,75.1097449 20.53,75.81 C19.9922651,77.1950025 19.209809,78.4719978 18.22,79.58 C17.7317028,80.184007 17.1128711,80.6694993 16.41,81 C15.987827,81.1924987 15.5189054,81.2584951 15.06,81.19 C14.9509613,81.1780019 14.8454959,81.1439808 14.75,81.09 L13.87,80.58 C13.7720775,80.5319339 13.6995334,80.4441038 13.6708317,80.3388641 C13.6421299,80.2336244 13.6600388,80.1211253 13.72,80.03 C14.12,79.34 14.53,78.65 14.94,77.96 C14.9895939,77.8607119 15.0801161,77.7880675 15.1877874,77.7611497 C15.2954588,77.7342319 15.4095168,77.7557312 15.5,77.82 L16.36,78.33 C16.5354022,78.4717537 16.7914456,78.449681 16.94,78.28 C17.1308633,78.1023815 17.3018665,77.9045544 17.45,77.69 C17.81,77.12 18.15,76.53 18.45,75.93 C18.5876513,75.6565278 18.7111478,75.3761575 18.82,75.09 C18.82,75.01 18.82,74.93 18.82,74.86 C18.8805867,74.6670927 18.7795001,74.4605244 18.59,74.39 L17.74,73.89 C17.6359052,73.8427742 17.5585991,73.7511986 17.5295088,73.6406556 C17.5004185,73.5301125 17.5226348,73.4123469 17.59,73.32 L18.75,71.32 C18.8171934,71.1735004 18.9694953,71.0853255 19.13,71.1 C19.1857525,71.0856048 19.2442475,71.0856048 19.3,71.1 L20.24,71.66 C20.4300874,71.7929669 20.5790642,71.9765894 20.67,72.19 C20.8978779,72.6243781 21.0114429,73.1096107 21,73.6 Z" id="Path" fill="#637789"></path>
            <rect id="Rectangle" fill="#E2E6EC" x="7.78" y="89.68" width="68.02" height="18.24" rx="8.62"></rect>
            <circle id="Oval" fill="#FFFFFF" cx="17.35" cy="98.97" r="7.35"></circle>
            <path d="M21,96.44 C20.9859678,97.203159 20.8264488,97.9566319 20.53,98.66 C19.9897497,100.043755 19.2075551,101.320323 18.22,102.43 C17.713103,103.021288 17.081227,103.492633 16.37,103.81 C15.9450423,103.992756 15.4788929,104.058362 15.02,104 C14.9113032,103.980696 14.8065531,103.943527 14.71,103.89 C14.41,103.73 14.12,103.55 13.83,103.38 C13.7320775,103.331934 13.6595334,103.244104 13.6308317,103.138864 C13.6021299,103.033624 13.6200388,102.921125 13.68,102.83 C14.08,102.14 14.49,101.45 14.9,100.76 C14.9495939,100.660712 15.0401161,100.588068 15.1477874,100.56115 C15.2554588,100.534232 15.3695168,100.555731 15.46,100.62 L16.32,101.13 C16.4822981,101.284921 16.7377019,101.284921 16.9,101.13 C17.0907018,100.955902 17.2617252,100.761405 17.41,100.55 C17.77,99.97 18.11,99.38 18.41,98.78 C18.5494887,98.5073979 18.67303,98.2269258 18.78,97.94 C18.785696,97.8634391 18.785696,97.7865609 18.78,97.71 C18.8405867,97.5170927 18.7395001,97.3105244 18.55,97.24 L17.7,96.74 C17.5959052,96.6927742 17.5185991,96.6011986 17.4895088,96.4906556 C17.4604185,96.3801125 17.4826348,96.2623469 17.55,96.17 L18.71,94.17 C18.7814983,94.0274847 18.930807,93.9410428 19.09,93.95 C19.1462153,93.9398854 19.2037847,93.9398854 19.26,93.95 L20.2,94.51 C20.3900874,94.6429669 20.5390642,94.8265894 20.63,95.04 C20.8701437,95.4677053 20.997474,95.9494958 21,96.44 L21,96.44 Z" id="Path" fill="#637789"></path>
            <rect id="Rectangle" fill="#E2E6EC" x="7.78" y="112.52" width="68.02" height="18.24" rx="8.62"></rect>
            <circle id="Oval" fill="#FFFFFF" cx="17.35" cy="121.82" r="7.35"></circle>
            <path d="M21,119.29 C20.9847022,120.049784 20.8252081,120.799745 20.53,121.5 C19.9922651,122.885002 19.209809,124.161998 18.22,125.27 C17.7159186,125.864293 17.0833053,126.336188 16.37,126.65 C15.947827,126.842499 15.4789054,126.908495 15.02,126.84 C14.9102976,126.824648 14.8048429,126.787229 14.71,126.73 C14.41,126.57 14.12,126.4 13.83,126.23 C13.7320775,126.181934 13.6595334,126.094104 13.6308317,125.988864 C13.6021299,125.883624 13.6200388,125.771125 13.68,125.68 C14.08,124.98 14.49,124.29 14.9,123.61 C14.9495939,123.510712 15.0401161,123.438068 15.1477874,123.41115 C15.2554588,123.384232 15.3695168,123.405731 15.46,123.47 L16.32,123.97 C16.3968969,124.046943 16.501219,124.090172 16.61,124.090172 C16.718781,124.090172 16.8231031,124.046943 16.9,123.97 C17.0908633,123.792382 17.2618665,123.594554 17.41,123.38 C17.77,122.8 18.11,122.21 18.41,121.62 C18.5494989,121.343981 18.6730355,121.060181 18.78,120.77 C18.785696,120.693439 18.785696,120.616561 18.78,120.54 C18.8354011,120.347516 18.7359842,120.14436 18.55,120.07 C18.26,119.91 17.98,119.74 17.7,119.57 C17.5963766,119.525096 17.5189349,119.435326 17.4897148,119.326237 C17.4604946,119.217148 17.4826958,119.100688 17.55,119.01 L18.71,117.01 C18.7771934,116.8635 18.9294953,116.775326 19.09,116.79 C19.1457525,116.775605 19.2042475,116.775605 19.26,116.79 L20.2,117.35 C20.3924103,117.480454 20.5420019,117.664834 20.63,117.88 C20.872629,118.310323 21,118.795989 21,119.29 Z" id="Path" fill="#637789"></path>
            <polygon id="Path" fill="#F05751" points="97.93 110.23 92.02 104.32 81.47 114.86 70.93 104.32 65.02 110.23 75.56 120.78 65.02 131.32 70.93 137.23 81.47 126.69 92.02 137.23 97.93 131.32 87.38 120.78"></polygon>
        </g>
    </g>
</svg>