<?xml version="1.0" encoding="UTF-8"?>
<svg width="133.920525px" height="165.920227px" viewBox="0 0 133.920525 165.920227" version="1.1" xmlns="http://www.w3.org/2000/svg" xmlns:xlink="http://www.w3.org/1999/xlink">
    <title>Graphic 05</title>
    <g id="Graphic-05" stroke="none" stroke-width="1" fill="none" fill-rule="evenodd">
        <g id="Asset-5" transform="translate(0.000000, -0.000000)">
            <rect id="Rectangle" fill="#FFFFFF" fill-rule="nonzero" x="7.55" y="29.8602265" width="98.17" height="128.38"></rect>
            <path d="M83.07,22.3102265 L0,22.3102265 L0,165.790227 L113.28,165.790227 L113.28,22.3102265 L83.07,22.3102265 Z M105.73,158.240227 L7.55,158.240227 L7.55,29.8602265 L105.73,29.8602265 L105.73,158.240227 Z" id="Shape" fill="#3B546A" fill-rule="nonzero"></path>
            <rect id="Rectangle" fill="#CED4DD" fill-rule="nonzero" x="33.98" y="55.4202265" width="60.41" height="7.55"></rect>
            <rect id="Rectangle" fill="#CED4DD" fill-rule="nonzero" x="33.98" y="74.3002265" width="60.41" height="7.55"></rect>
            <rect id="Rectangle" fill="#CED4DD" fill-rule="nonzero" x="33.98" y="93.1802265" width="60.41" height="7.55"></rect>
            <rect id="Rectangle" fill="#CED4DD" fill-rule="nonzero" x="33.98" y="112.060227" width="60.41" height="7.55"></rect>
            <rect id="Rectangle" fill="#CED4DD" fill-rule="nonzero" x="33.98" y="130.940227" width="60.41" height="7.55"></rect>
            <path d="M27.38,63.9202265 L17.94,63.9202265 L17.94,54.4802265 L27.38,54.4802265 L27.38,63.9202265 Z M19.82,62.0502265 L25.49,62.0502265 L25.49,56.3702265 L19.82,56.3702265 L19.82,62.0502265 Z" id="Shape" fill="#CED4DD" fill-rule="nonzero"></path>
            <path d="M27.38,82.8002265 L17.94,82.8002265 L17.94,73.3602265 L27.38,73.3602265 L27.38,82.8002265 Z M19.82,80.9102265 L25.49,80.9102265 L25.49,75.2502265 L19.82,75.2502265 L19.82,80.9102265 Z" id="Shape" fill="#CED4DD" fill-rule="nonzero"></path>
            <path d="M27.38,101.680227 L17.94,101.680227 L17.94,92.2402265 L27.38,92.2402265 L27.38,101.680227 Z M19.82,99.7902265 L25.49,99.7902265 L25.49,94.1302265 L19.82,94.1302265 L19.82,99.7902265 Z" id="Shape" fill="#CED4DD" fill-rule="nonzero"></path>
            <path d="M27.38,120.560227 L17.94,120.560227 L17.94,111.120227 L27.38,111.120227 L27.38,120.560227 Z M19.82,118.670227 L25.49,118.670227 L25.49,113.050227 L19.82,113.050227 L19.82,118.670227 Z" id="Shape" fill="#CED4DD" fill-rule="nonzero"></path>
            <path d="M27.38,139.440227 L17.94,139.440227 L17.94,130.050227 L27.38,130.050227 L27.38,139.440227 Z M19.82,137.550227 L25.49,137.550227 L25.49,131.890227 L19.82,131.890227 L19.82,137.550227 Z" id="Shape" fill="#CED4DD" fill-rule="nonzero"></path>
            <polygon id="Path" fill="#00A551" fill-rule="nonzero" points="22.4 63.3602265 16.36 57.3202265 18.63 55.0502265 22.4 58.8202265 31.08 50.1402265 33.34 52.4102265"></polygon>
            <polygon id="Path" fill="#00A551" fill-rule="nonzero" points="16.36 96.2102265 18.63 93.9402265 22.4 97.7102265 31.08 89.0302265 33.34 91.3002265 22.4 102.250227"></polygon>
            <polygon id="Path" fill="#00A551" fill-rule="nonzero" points="22.4 83.3702265 16.36 77.3302265 18.63 75.0602265 22.4 78.8302265 31.08 70.1502265 33.34 72.4202265"></polygon>
            <polygon id="Path" fill="#F05751" fill-rule="nonzero" points="28.97 111.890227 26.7 109.620227 22.66 113.660227 18.61 109.620227 16.34 111.890227 20.39 115.930227 16.34 119.980227 18.61 122.240227 22.66 118.200227 26.7 122.240227 28.97 119.980227 24.92 115.930227"></polygon>
            <polygon id="Path" fill="#FFC33E" fill-rule="nonzero" points="125.29 66.3102265 122.94 64.8902265 120.58 63.4602265 119.64 62.8902265 118.23 62.0402265 73.43 136.110227 76.98 135.570227 78.14 138.960227 81.69 138.420227 82.86 141.810227 127.65 67.7402265"></polygon>
            <polygon id="Path" fill="#E0E0E0" fill-rule="nonzero" points="127.73 62.2902265 123.02 59.4402265 122.07 58.8702265 120.66 58.0202265 118.23 62.0402265 119.64 62.8902265 120.58 63.4602265 122.94 64.8902265 125.29 66.3102265 127.65 67.7402265 130.08 63.7102265"></polygon>
            <path d="M129.96,50.6202265 C127.554445,49.8992445 124.966027,50.8992216 123.67,53.0502265 L120.67,58.0502265 L122.08,58.9002265 L123.08,59.4702265 L127.79,62.3202265 L130.14,63.7402265 L133.14,58.7402265 C133.89162,57.4856584 134.111603,55.9830491 133.751158,54.5656738 C133.390713,53.1482984 132.479635,51.9333231 131.22,51.1902265 C130.826916,50.9456018 130.403255,50.7539458 129.96,50.6202265 Z" id="Path" fill="#FF5555" fill-rule="nonzero"></path>
            <polygon id="Path" fill="#FFE9BD" fill-rule="nonzero" points="81.69 138.420227 78.14 138.960227 76.98 135.570227 73.43 136.110227 71.96 149.190227 82.86 141.810227"></polygon>
            <polygon id="Path" fill="#000000" fill-rule="nonzero" opacity="0.1" points="122.94 64.8902265 78.14 138.960227 76.98 135.570227 120.58 63.4602265"></polygon>
            <polygon id="Path" fill="#000000" fill-rule="nonzero" opacity="0.1" points="127.65 67.7402265 82.86 141.810227 81.69 138.420227 125.29 66.3102265"></polygon>
            <polygon id="Path" fill="#000000" fill-rule="nonzero" opacity="0.05" points="81.69 138.420227 82.86 141.810227 71.96 149.190227"></polygon>
            <rect id="Rectangle" fill="#FFFFFF" fill-rule="nonzero" opacity="0.3" transform="translate(121.886200, 60.783627) rotate(-58.840695) translate(-121.886200, -60.783627) " x="119.524479" y="60.2308834" width="4.72344154" height="1.10548632"></rect>
            <rect id="Rectangle" fill="#000000" fill-rule="nonzero" opacity="0.1" transform="translate(128.288700, 64.618627) rotate(-58.840695) translate(-128.288700, -64.618627) " x="125.926979" y="63.2367686" width="4.72344154" height="2.7637158"></rect>
            <path d="M131.22,51.1902265 C132.471235,51.9415881 133.37179,53.1602506 133.722678,54.5769406 C134.073567,55.9936307 133.845907,57.4917318 133.09,58.7402265 L130.09,63.7402265 L127.74,62.3202265 L130.74,57.3202265 C132.039686,55.1722759 131.723073,52.4173377 129.97,50.6202265 C130.409794,50.7547622 130.830044,50.9463963 131.22,51.1902265 L131.22,51.1902265 Z" id="Path" fill="#000000" fill-rule="nonzero" opacity="0.1"></path>
            <path d="M80.35,32.9502265 L80.35,19.4102265 C80.3473558,18.2150129 79.8693342,17.0699514 79.0213791,16.2276244 C78.1734241,15.3852974 77.0252047,14.9149115 75.83,14.9202265 L62.83,14.9202265 C65.3296889,12.4206292 66.0775049,8.66137429 64.7247378,5.3954208 C63.3719706,2.1294673 60.1850292,0 56.65,0 C53.1149708,0 49.9280294,2.1294673 48.5752622,5.3954208 C47.2224951,8.66137429 47.9703111,12.4206292 50.47,14.9202265 L50.47,14.9202265 L37.47,14.9702265 C36.2730525,14.9702147 35.1254185,15.4470649 34.2809275,16.2953092 C33.4364365,17.1435535 32.9646802,18.2932908 32.9699555,19.4902265 L32.9699555,33.0302265 C32.9726492,34.2263538 33.4503512,35.3724381 34.2980162,36.2163524 C35.1456813,37.0602668 36.2938727,37.5328816 37.49,37.5302377 L75.84,37.4002265 C78.3053503,37.3950678 80.3118251,35.4152867 80.35,32.9502265 Z M55.6,12.4902265 C54.1018703,12.0944354 52.9898286,10.8349387 52.7826666,9.29931928 C52.5755047,7.76369984 53.3140438,6.25455148 54.6537393,5.47592504 C55.9934348,4.69729861 57.6702996,4.80262243 58.9020396,5.74276064 C60.1337795,6.68289885 60.6776802,8.27259721 60.28,9.77022653 C60.0218811,10.7526413 59.3831202,11.5918013 58.5049144,12.1022115 C57.6267085,12.6126218 56.5813811,12.7522482 55.6,12.4902265 L55.6,12.4902265 Z" id="Shape" fill="#283B49" fill-rule="nonzero"></path>
            <rect id="Rectangle" x="0" y="0.0502265331" width="133.88" height="165.87"></rect>
        </g>
    </g>
</svg>