<?xml version="1.0" encoding="UTF-8"?>
<svg width="148px" height="154px" viewBox="0 0 148 154" version="1.1" xmlns="http://www.w3.org/2000/svg" xmlns:xlink="http://www.w3.org/1999/xlink">
    <title>Group 10</title>
    <defs>
        <polygon id="path-1" points="0 0 27 0 27 30 0 30"></polygon>
        <polygon id="path-3" points="0 0 27 0 27 30 0 30"></polygon>
        <polygon id="path-5" points="0 -5.0099268e-15 121 -5.0099268e-15 121 33 0 33"></polygon>
        <polygon id="path-7" points="0 116.682 48.365 116.682 48.365 0 0 0"></polygon>
    </defs>
    <g id="Design" stroke="none" stroke-width="1" fill="none" fill-rule="evenodd">
        <g id="결제-처음-가입한-사람" transform="translate(-32.000000, -574.000000)">
            <g id="Group-2" transform="translate(16.000000, 524.000000)">
                <g id="Group-10" transform="translate(16.000000, 50.000000)">
                    <g id="Group-12" transform="translate(0.000000, 112.000000)">
                        <g id="Group-3">
                            <mask id="mask-2" fill="white">
                                <use xlink:href="#path-1"></use>
                            </mask>
                            <g id="Clip-2"></g>
                            <path d="M27,5.18133426 L27,30 C17.7285962,28.5502562 8.67451567,26.5033127 -0.000237079878,23.8480071 L7.49069681,13.2749234 L4.78245433,-0.000209298918 C11.8853675,2.17510413 19.3383686,3.90670384 27,5.18133426" id="Fill-1" fill="#90C3CA" mask="url(#mask-2)"></path>
                        </g>
                        <g id="Group-6" transform="translate(121.000000, 0.000000)">
                            <mask id="mask-4" fill="white">
                                <use xlink:href="#path-3"></use>
                            </mask>
                            <g id="Clip-5"></g>
                            <path d="M0,5.18133426 L0,30 C9.27148519,28.5502562 18.324855,26.5033127 27.0004742,23.8480071 L19.5094745,13.2749234 L22.2177408,-0.000209298918 C15.1147652,2.17510413 7.66169868,3.90670384 0,5.18133426" id="Fill-4" fill="#90C3CA" mask="url(#mask-4)"></path>
                        </g>
                        <g id="Group-9" transform="translate(14.000000, 9.000000)">
                            <mask id="mask-6" fill="white">
                                <use xlink:href="#path-5"></use>
                            </mask>
                            <g id="Clip-8"></g>
                            <path d="M60.5003897,33.0000705 C39.7212105,33.0000705 18.9420313,30.0316647 0,24.0948531 L4.71641147,-5.0099268e-15 C39.1249364,10.7849727 81.8758431,10.7849727 116.284368,-5.0099268e-15 L121,24.0948531 C102.058748,30.0316647 81.2795689,33.0000705 60.5003897,33.0000705" id="Fill-7" fill="#BEE0E5" mask="url(#mask-6)"></path>
                        </g>
                        <path d="M131,12.1110486 C96.543049,22.6296505 52.4671001,22.6296505 18,12.1110486 L18.6269017,9 C53.093221,19.5186018 95.914586,19.5186018 130.370756,9 L131,12.1110486 Z" id="Fill-10" fill="#FFFFFF"></path>
                    </g>
                    <text id="다이아-회원" font-family="GodoB, Godo B" font-size="12" font-weight="normal" letter-spacing="-0.00807675" fill="#101828">
                        <tspan x="43.9622303" y="146">다이아 회원</tspan>
                    </text>
                    <g id="Group-19" transform="translate(10.000000, 28.000000)" fill="#BEE0E5">
                        <path d="M29.474084,68 C29.474084,68 30.1271694,49.2071849 26.4206064,45.4712398 C23.5547743,42.5821849 13,41.5 13,41.5 C13,41.5 23.3397167,41.8535118 26.4531053,38.7154889 C29.9121118,35.2285118 29.474084,15 29.474084,15 C29.474084,15 30.0847796,35.5825934 33.098976,38.6209152 C36.6568921,42.2075934 47,41.5 47,41.5 C47,41.5 36.1109116,42.1155835 33.1213013,45.1288376 C29.5385165,48.7405835 29.474084,68 29.474084,68" id="Fill-1"></path>
                        <path d="M12.3606852,35 C12.3606852,35 12.5336886,30.0358955 11.5524535,29.0491713 C10.7939455,28.2858955 8,28 8,28 C8,28 10.7368662,28.0935227 11.560986,27.2645442 C12.4769035,26.3435227 12.3606852,21 12.3606852,21 C12.3606852,21 12.5222139,26.4370455 13.3201478,27.2396837 C14.2619569,28.1867495 17,28 17,28 C17,28 14.1174932,28.162481 13.3263265,28.9586082 C12.3777502,29.9127769 12.3606852,35 12.3606852,35" id="Fill-3" opacity="0.5"></path>
                        <path d="M45.3606852,62 C45.3606852,62 45.5333944,57.0358955 44.5524535,56.0491713 C43.7936513,55.2858955 41,55 41,55 C41,55 43.7368662,55.0935227 44.560986,54.2645442 C45.4766092,53.3432268 45.3606852,48 45.3606852,48 C45.3606852,48 45.5222139,53.4367495 46.3201478,54.2393878 C47.2619569,55.1867495 50,55 50,55 C50,55 47.1174932,55.162481 46.3260322,55.9586082 C45.3777502,56.912481 45.3606852,62 45.3606852,62" id="Fill-5"></path>
                        <path d="M36.9070224,9 C36.9070224,9 37.0223617,5.80868876 36.3682817,5.17425083 C35.8624951,4.68365308 34,4.4998573 34,4.4998573 C34,4.4998573 35.824539,4.56007611 36.3738721,4.02723958 C36.9844056,3.43504043 36.9070224,0 36.9070224,0 C36.9070224,0 37.0147117,3.49497384 37.546685,4.01125733 C38.1745783,4.62000951 40,4.4998573 40,4.4998573 C40,4.4998573 38.0783641,4.60459807 37.5508042,5.11631521 C36.9184974,5.72963374 36.9070224,9 36.9070224,9" id="Fill-7" fill-opacity="0.3"></path>
                        <path d="M2.90716493,59 C2.90716493,59 3.02250993,55.8086888 2.36839782,55.1745362 C1.86258644,54.6839385 0,54.5001427 0,54.5001427 C0,54.5001427 1.82462851,54.5600761 2.37398852,54.0272396 C2.98455201,53.4350404 2.90716493,50 2.90716493,50 C2.90716493,50 3.0148595,53.4952592 3.54685891,54.0112573 C4.17478299,54.6202949 6,54.5001427 6,54.5001427 C6,54.5001427 4.07826982,54.6045981 3.55097837,55.1163152 C2.91864058,55.7296337 2.90716493,59 2.90716493,59" id="Fill-9"></path>
                        <path d="M36.9070224,77 C36.9070224,77 37.0223617,73.8086888 36.3682817,73.1742508 C35.8624951,72.6836531 34,72.4998573 34,72.4998573 C34,72.4998573 35.824539,72.5600761 36.3738721,72.0272396 C36.9844056,71.4350404 36.9070224,68 36.9070224,68 C36.9070224,68 37.0147117,71.4949738 37.546685,72.0112573 C38.1745783,72.6200095 40,72.4998573 40,72.4998573 C40,72.4998573 38.0783641,72.6045981 37.5508042,73.1163152 C36.9184974,73.7296337 36.9070224,77 36.9070224,77" id="Fill-11" opacity="0.3"></path>
                        <path d="M46.3298878,38 C46.3298878,38 46.5411727,31.9720404 45.3420359,30.7736528 C44.414844,29.8470404 41,29.5 41,29.5 C41,29.5 44.3453925,29.6133372 45.3525854,28.6067737 C46.4714282,27.4883372 46.3298878,21 46.3298878,21 C46.3298878,21 46.5273996,27.6019673 47.5026507,28.5763162 C48.6537283,29.7266745 52,29.5 52,29.5 C52,29.5 48.4770227,29.6973884 47.5096838,30.6638299 C46.350694,31.8223884 46.3298878,38 46.3298878,38" id="Fill-13"></path>
                        <path d="M14.2062058,79 C14.2062058,79 14.571138,68.3626979 12.5000147,66.2477624 C10.8982901,64.6126622 5,63.999857 5,63.999857 C5,63.999857 10.7781397,64.2000267 12.5179393,62.4236639 C14.4509876,60.4499909 14.2062058,49 14.2062058,49 C14.2062058,49 14.547332,60.6504466 16.2319575,62.37019 C18.2204599,64.4004823 24,63.999857 24,63.999857 C24,63.999857 17.9151828,64.3484382 16.2445607,66.0541697 C14.2423349,68.098188 14.2062058,79 14.2062058,79" id="Fill-17" fill-opacity="0.5"></path>
                    </g>
                    <g id="Group-19-Copy" transform="translate(80.000000, 0.000000)" fill="#BEE0E5">
                        <path d="M36.3606852,39 C36.3606852,39 36.5336886,34.0358955 35.5524535,33.0491713 C34.7939455,32.2858955 32,32 32,32 C32,32 34.7368662,32.0935227 35.560986,31.2645442 C36.4769035,30.3435227 36.3606852,25 36.3606852,25 C36.3606852,25 36.5222139,30.4370455 37.3201478,31.2396837 C38.2619569,32.1867495 41,32 41,32 C41,32 38.1174932,32.162481 37.3263265,32.9586082 C36.3777502,33.9127769 36.3606852,39 36.3606852,39" id="Fill-3" opacity="0.3"></path>
                        <path d="M40.3606852,90 C40.3606852,90 40.5333944,85.0358955 39.5524535,84.0491713 C38.7936513,83.2858955 36,83 36,83 C36,83 38.7368662,83.0935227 39.560986,82.2645442 C40.4766092,81.3432268 40.3606852,76 40.3606852,76 C40.3606852,76 40.5222139,81.4367495 41.3201478,82.2393878 C42.2619569,83.1867495 45,83 45,83 C45,83 42.1174932,83.162481 41.3260322,83.9586082 C40.3777502,84.912481 40.3606852,90 40.3606852,90" id="Fill-5"></path>
                        <path d="M21.9070224,9 C21.9070224,9 22.0223617,5.80868876 21.3682817,5.17425083 C20.8624951,4.68365308 19,4.4998573 19,4.4998573 C19,4.4998573 20.824539,4.56007611 21.3738721,4.02723958 C21.9844056,3.43504043 21.9070224,0 21.9070224,0 C21.9070224,0 22.0147117,3.49497384 22.546685,4.01125733 C23.1745783,4.62000951 25,4.4998573 25,4.4998573 C25,4.4998573 23.0783641,4.60459807 22.5508042,5.11631521 C21.9184974,5.72963374 21.9070224,9 21.9070224,9" id="Fill-7"></path>
                        <path d="M31.9070224,105 C31.9070224,105 32.0223617,101.808689 31.3682817,101.174251 C30.8624951,100.683653 29,100.499857 29,100.499857 C29,100.499857 30.824539,100.560076 31.3738721,100.02724 C31.9844056,99.4350404 31.9070224,96 31.9070224,96 C31.9070224,96 32.0147117,99.4949738 32.546685,100.011257 C33.1745783,100.62001 35,100.499857 35,100.499857 C35,100.499857 33.0783641,100.604598 32.5508042,101.116315 C31.9184974,101.729634 31.9070224,105 31.9070224,105" id="Fill-11"></path>
                        <path d="M55.3298878,78 C55.3298878,78 55.5411727,71.9720404 54.3420359,70.7736528 C53.414844,69.8470404 50,69.5 50,69.5 C50,69.5 53.3453925,69.6133372 54.3525854,68.6067737 C55.4714282,67.4883372 55.3298878,61 55.3298878,61 C55.3298878,61 55.5273996,67.6019673 56.5026507,68.5763162 C57.6537283,69.7266745 61,69.5 61,69.5 C61,69.5 57.4770227,69.6973884 56.5096838,70.6638299 C55.350694,71.8223884 55.3298878,78 55.3298878,78" id="Fill-13" fill-opacity="0.3"></path>
                        <path d="M23.2371307,75 C23.2371307,75 23.5637896,65.4261732 21.7103861,63.5229842 C20.2775734,62.0511732 15,61.5 15,61.5 C15,61.5 20.1701826,61.6799808 21.726649,60.0811753 C23.4561184,58.3049808 23.2371307,48 23.2371307,48 C23.2371307,48 23.5424797,58.4852496 25.0495967,60.0330845 C26.8286958,61.8605375 32,61.5 32,61.5 C32,61.5 26.5555922,61.8133106 25.0608125,63.3487628 C23.269376,65.1885985 23.2371307,75 23.2371307,75" id="Fill-15"></path>
                        <path d="M9.20620578,107 C9.20620578,107 9.57113797,96.3626979 7.50001474,94.2477624 C5.89829009,92.6126622 0,91.999857 0,91.999857 C0,91.999857 5.77813974,92.2000267 7.51793927,90.4236639 C9.45098762,88.4499909 9.20620578,77 9.20620578,77 C9.20620578,77 9.54733196,88.6504466 11.2319575,90.37019 C13.2204599,92.4004823 19,91.999857 19,91.999857 C19,91.999857 12.9151828,92.3484382 11.2445607,94.0541697 C9.24233491,96.098188 9.20620578,107 9.20620578,107" id="Fill-17" opacity="0.5"></path>
                    </g>
                    <g id="Group-29" transform="translate(50.000000, 1.000000)">
                        <polygon id="Fill-1" fill="#E4F3F9" points="22.54 116.682 25.827 116.682 25.827 52.351 22.54 52.351"></polygon>
                        <g id="Group-28" transform="translate(0.000000, -0.000000)">
                            <path d="M32.4817,51.2792 C32.4817,52.5642 28.7657,53.6062 24.1827,53.6062 C19.5987,53.6062 15.8827,52.5642 15.8827,51.2792 C15.8827,49.9942 19.5987,48.9532 24.1827,48.9532 C28.7657,48.9532 32.4817,49.9942 32.4817,51.2792" id="Fill-2" fill="#BEE0E5"></path>
                            <path d="M35.2863,48.9531 C35.2863,50.2381 30.3153,51.2791 24.1823,51.2791 C18.0493,51.2791 13.0783,50.2381 13.0783,48.9531 C13.0783,47.6681 18.0493,46.6271 24.1823,46.6271 C30.3153,46.6271 35.2863,47.6681 35.2863,48.9531" id="Fill-4" fill="#E4F3F9"></path>
                            <path d="M47.2429,26.6352 C45.3599,32.9772 37.5589,43.8882 26.0979,48.2972 L24.1839,49.0312 L22.2699,48.2972 C10.8089,43.8882 3.0079,32.9772 1.1249,26.6352 C0.8039,25.5512 0.5999,24.4472 0.5129,23.3462 C0.4239,22.2252 0.8189,21.1202 1.6139,20.3252 L3.7959,18.1432 L3.7439,18.0922 C2.4269,16.7762 2.2279,14.6802 3.3389,13.1872 C3.3459,13.1772 3.3529,13.1692 3.3589,13.1602 C5.9709,9.6642 9.9519,7.7372 14.5719,7.7372 C18.6109,7.7372 21.8059,9.0332 24.1839,10.7282 C26.5629,9.0332 29.7569,7.7372 33.7959,7.7372 C38.4149,7.7372 42.3939,9.6612 45.0049,13.1602 C45.0129,13.1692 45.0199,13.1792 45.0269,13.1882 C46.1369,14.6812 45.9399,16.7762 44.6239,18.0922 L44.5729,18.1432 L46.7509,20.3222 C47.5439,21.1152 47.9389,22.2182 47.8529,23.3372 C47.7669,24.4412 47.5649,25.5472 47.2429,26.6352" id="Fill-6" fill="#E4F3F9"></path>
                            <path d="M14.572,8.2372 C10.115,8.2372 6.275,10.0912 3.759,13.4592 C2.792,14.7592 2.946,16.5882 4.098,17.7372 L4.452,18.0912 L4.149,18.4972 L1.968,20.6782 C1.281,21.3642 0.933,22.3222 1.011,23.3062 C1.097,24.3822 1.297,25.4542 1.605,26.4932 C3.458,32.7362 11.151,43.4842 22.449,47.8302 L24.184,48.4962 L25.919,47.8302 C37.218,43.4842 44.91,32.7362 46.763,26.4932 C47.072,25.4512 47.27,24.3762 47.354,23.2982 C47.43,22.3152 47.081,21.3592 46.397,20.6752 L43.867,18.1452 L44.218,17.7912 C45.42,16.5892 45.573,14.7612 44.625,13.4872 C42.092,10.0912 38.253,8.2372 33.796,8.2372 C30.309,8.2372 27.173,9.2122 24.474,11.1352 L24.184,11.3412 L23.894,11.1352 C21.195,9.2122 18.059,8.2372 14.572,8.2372 L14.572,8.2372 Z M24.184,49.5672 L22.091,48.7642 C10.475,44.2962 2.558,33.2172 0.646,26.7772 C0.318,25.6722 0.105,24.5312 0.014,23.3852 C-0.087,22.1092 0.367,20.8642 1.26,19.9712 L3.108,18.1242 C1.869,16.5852 1.791,14.4302 2.938,12.8882 C5.667,9.2342 9.792,7.2372 14.572,7.2372 C18.147,7.2372 21.379,8.2062 24.184,10.1182 C26.989,8.2062 30.221,7.2372 33.796,7.2372 C38.577,7.2372 42.7,9.2342 45.406,12.8612 C46.583,14.4442 46.495,16.6262 45.264,18.1282 L47.104,19.9682 C47.995,20.8592 48.45,22.1012 48.351,23.3752 C48.262,24.5242 48.051,25.6682 47.722,26.7772 L47.722,26.7772 C45.81,33.2172 37.893,44.2962 26.278,48.7642 L24.184,49.5672 Z" id="Fill-8" fill="#BEE0E5"></path>
                            <path d="M24.1844,43.7042 C14.7604,40.0802 8.5894,30.9972 7.2704,26.5502 C5.7554,21.4402 8.4784,15.1942 15.1234,15.1942 C21.7674,15.1942 24.1844,20.3892 24.1844,20.3892 C24.1844,20.3892 26.5994,15.1942 33.2444,15.1942 C39.8884,15.1942 42.6124,21.4402 41.0964,26.5502 C39.7774,30.9972 33.6064,40.0802 24.1844,43.7042 Z" id="Fill-10" fill="#90C3CA"></path>
                            <path d="M24.1844,41.0787 C14.7604,37.4547 8.5894,28.3717 7.2704,23.9247 C5.7554,18.8147 8.4784,12.5687 15.1234,12.5687 C21.7674,12.5687 24.1844,17.7637 24.1844,17.7637 C24.1844,17.7637 26.5994,12.5687 33.2444,12.5687 C39.8884,12.5687 42.6124,18.8147 41.0964,23.9247 C39.7774,28.3717 33.6064,37.4547 24.1844,41.0787 Z" id="Fill-12" fill="#FFFFFF"></path>
                            <path d="M41.0964,24.8627 C39.7774,29.3097 33.6064,38.3927 24.1844,42.0167 C14.7604,38.3927 8.5894,29.3097 7.2704,24.8627 C5.7554,19.7527 8.4784,13.5067 15.1234,13.5067 C21.7674,13.5067 24.1844,18.7017 24.1844,18.7017 C24.1844,18.7017 26.5994,13.5067 33.2444,13.5067 C39.8884,13.5067 42.6124,19.7527 41.0964,24.8627" id="Fill-14" fill="#BEE0E5"></path>
                            <path d="M27.469,3.2851 C27.469,5.0991 25.998,6.5701 24.184,6.5701 C22.369,6.5701 20.899,5.0991 20.899,3.2851 C20.899,1.4711 22.369,0.0001 24.184,0.0001 C25.998,0.0001 27.469,1.4711 27.469,3.2851" id="Fill-16" fill="#BEE0E5"></path>
                            <path d="M24.5237,2.2304 C24.5237,2.9524 23.9387,3.5374 23.2167,3.5374 C22.4947,3.5374 21.9097,2.9524 21.9097,2.2304 C21.9097,1.5084 22.4947,0.9234 23.2167,0.9234 C23.9387,0.9234 24.5237,1.5084 24.5237,2.2304" id="Fill-18" fill="#FFFFFF"></path>
                            <mask id="mask-8" fill="white">
                                <use xlink:href="#path-7"></use>
                            </mask>
                            <g id="Clip-21"></g>
                            <polygon id="Fill-20" fill="#E4F3F9" mask="url(#mask-8)" points="25.827 116.682 32.482 116.682 32.482 96.116 25.827 96.116"></polygon>
                            <polygon id="Fill-22" fill="#E4F3F9" mask="url(#mask-8)" points="29.154 102.875 37.233 102.875 37.233 100.191 29.154 100.191"></polygon>
                            <polygon id="Fill-23" fill="#E4F3F9" mask="url(#mask-8)" points="29.154 107.741 37.233 107.741 37.233 105.057 29.154 105.057"></polygon>
                            <polygon id="Fill-24" fill="#E4F3F9" mask="url(#mask-8)" points="28.337 116.682 40.688 116.682 40.688 110.411 28.337 110.411"></polygon>
                            <polygon id="Fill-25" fill="#90C3CA" mask="url(#mask-8)" points="22.541 116.682 40.688 116.682 40.688 114.857 22.541 114.857"></polygon>
                            <polygon id="Fill-26" fill="#90C3CA" mask="url(#mask-8)" points="32.482 107.741 37.233 107.741 37.233 106.828 32.482 106.828"></polygon>
                            <polygon id="Fill-27" fill="#90C3CA" mask="url(#mask-8)" points="32.482 102.875 37.233 102.875 37.233 101.963 32.482 101.963"></polygon>
                        </g>
                    </g>
                </g>
            </g>
        </g>
    </g>
</svg>