<?xml version="1.0" encoding="UTF-8"?>
<svg width="40px" height="40px" viewBox="0 0 40 40" version="1.1" xmlns="http://www.w3.org/2000/svg" xmlns:xlink="http://www.w3.org/1999/xlink">
    <title>Icon / 40 / Thumbs / Up / Press</title>
    <g id="Icon-/-40-/-Thumbs-/-Up-/-Press" stroke="none" stroke-width="1" fill="none" fill-rule="evenodd" stroke-linecap="round" stroke-linejoin="round">
        <path d="M22,17 L22,13 C22,11.3431458 20.6568542,10 19,10 L15,19 L15,30.0001297 L26.28,30.0001297 C27.2772867,30.0112744 28.1304612,29.2860761 28.28,28.3 L29.66,19.3 C29.748056,18.7198553 29.5768972,18.1303088 29.1918585,17.6875143 C28.8068198,17.2447199 28.2467517,16.9933554 27.66,17 L22,17 Z" id="Path" stroke="#2E7E92" fill="#2E7E92"></path>
        <path d="M15,30 L12,30 C10.8954305,30 10,29.1045695 10,28 L10,21 C10,19.8954305 10.8954305,19 12,19 L15,19 L15,30 Z" id="Path" stroke="#2E7E92"></path>
    </g>
</svg>